<svg xmlns="http://www.w3.org/2000/svg" version="1.1" xmlns:xlink="http://www.w3.org/1999/xlink" xmlns:svgjs="http://svgjs.dev/svgjs" width="1000" height="1000" viewBox="0 0 1000 1000"><rect width="1000" height="1000" fill="#000000"></rect><g transform="matrix(0.7,0,0,0.7,149.57575965213147,374.98662128773003)"><svg viewBox="0 0 396 142" data-background-color="#8abcd7" preserveAspectRatio="xMidYMid meet" height="358" width="1000" xmlns="http://www.w3.org/2000/svg" xmlns:xlink="http://www.w3.org/1999/xlink"><g id="tight-bounds" transform="matrix(1,0,0,1,0.23999882536560335,-0.16241110477918141)"><svg viewBox="0 0 395.52 142.32482220955836" height="142.32482220955836" width="395.52"><g><svg viewBox="0 0 652.336768078458 234.73835593022972" height="142.32482220955836" width="395.52"><g><rect width="3.5407025359459348" height="101.9124555413443" x="244.0072107363709" y="66.41295019444271" fill="#ffffff" opacity="1" stroke-width="0" stroke="transparent" fill-opacity="1" class="rect-o-0" data-fill-palette-color="primary" rx="1%" id="o-0" data-palette-color="#ffffff"></rect></g><g transform="matrix(1,0,0,1,256.81676807845804,74.90565482288807)"><svg viewBox="0 0 395.52 84.92704628445358" height="84.92704628445358" width="395.52"><g id="textblocktransform"><svg viewBox="0 0 395.52 84.92704628445358" height="84.92704628445358" width="395.52" id="textblock"><g><svg viewBox="0 0 395.52 39.26216475262708" height="39.26216475262708" width="395.52"><g transform="matrix(1,0,0,1,0,0)"><svg width="395.52" viewBox="-0.30000001192092896 -35.95000076293945 370.1829833984375 36.75" height="39.26216475262708" data-palette-color="#ffffff"><path d="M9.05 0L-0.3 0-0.3-1.65Q1.2-1.65 2-2.45 2.8-3.25 3.33-4.65 3.85-6.05 4.55-7.9L4.55-7.9 14.85-35.95 16.05-35.95 27.2-7.5Q27.6-6.45 28.1-4.8 28.6-3.15 28.5-2L28.5-2Q29.35-2.05 30.2-2.1 31.05-2.15 31.9-2.2L31.9-2.2 31.9 0 20.45 0 20.45-1.65Q22.35-1.7 22.95-2.5 23.55-3.3 23.4-4.4 23.25-5.5 22.9-6.4L22.9-6.4 21.15-11.1 8.15-10.8 6.4-5.45Q6.05-4.25 5.78-3.55 5.5-2.85 5.15-2L5.15-2Q6.15-2.05 7.13-2.1 8.1-2.15 9.05-2.2L9.05-2.2 9.05 0ZM12.45-23L8.9-12.95 20.45-12.95 16.9-22.5Q16.35-24.05 15.78-25.58 15.2-27.1 14.65-28.65L14.65-28.65 14.55-28.65Q14.05-27.25 13.53-25.85 13-24.45 12.45-23L12.45-23ZM58.85 0L34.05 0 34.05-1.65Q35.95-1.75 36.65-2.53 37.35-3.3 37.42-4.67 37.5-6.05 37.5-7.8L37.5-7.8 37.5-29.4Q37.5-30.4 37.55-31.33 37.6-32.25 37.65-33L37.65-33Q36.75-32.95 35.85-32.9 34.95-32.85 34.05-32.8L34.05-32.8 34.05-35 45.3-35 45.3-33.35Q43.45-33.3 42.72-32.5 42-31.7 41.92-30.35 41.85-29 41.85-27.2L41.85-27.2 41.85-5.75Q41.85-4.4 41.82-3.45 41.8-2.5 41.7-1.85L41.7-1.85 51.05-2Q54.2-2.05 55.82-4 57.45-5.95 57.45-10.35L57.45-10.35 59.15-10.35 58.85 0ZM87.75 0L62.95 0 62.95-1.65Q64.85-1.75 65.55-2.53 66.25-3.3 66.32-4.67 66.4-6.05 66.4-7.8L66.4-7.8 66.4-29.4Q66.4-30.4 66.45-31.33 66.5-32.25 66.55-33L66.55-33Q65.65-32.95 64.75-32.9 63.85-32.85 62.95-32.8L62.95-32.8 62.95-35 74.2-35 74.2-33.35Q72.35-33.3 71.62-32.5 70.9-31.7 70.82-30.35 70.75-29 70.75-27.2L70.75-27.2 70.75-5.75Q70.75-4.4 70.72-3.45 70.7-2.5 70.6-1.85L70.6-1.85 79.95-2Q83.1-2.05 84.72-4 86.35-5.95 86.35-10.35L86.35-10.35 88.05-10.35 87.75 0ZM110.89-12.95L109.24-12.95Q109.24-15.15 108.64-16.1 108.04-17.05 106.74-17.25 105.44-17.45 103.29-17.35L103.29-17.35 99.64-17.2 99.64-5.75Q99.64-4.4 99.62-3.45 99.59-2.5 99.49-1.85L99.49-1.85 109.04-2Q111.24-2.05 112.84-2.73 114.44-3.4 115.34-5.1 116.24-6.8 116.24-9.75L116.24-9.75 117.94-9.75 117.64 0 91.84 0 91.84-1.65Q93.74-1.75 94.44-2.53 95.14-3.3 95.22-4.67 95.29-6.05 95.29-7.8L95.29-7.8 95.29-29.4Q95.29-30.4 95.34-31.33 95.39-32.25 95.44-33L95.44-33Q94.54-32.95 93.64-32.9 92.74-32.85 91.84-32.8L91.84-32.8 91.84-35 115.89-35 116.14-26.25 114.49-26.25Q114.49-29.2 113.59-30.73 112.69-32.25 111.17-32.77 109.64-33.3 107.74-33.25L107.74-33.25 103.44-33.15Q101.59-33.1 100.79-32.45 99.99-31.8 99.82-30.53 99.64-29.25 99.64-27.2L99.64-27.2 99.64-19.2 109.04-19.15 108.69-23.45 110.89-23.45 110.89-12.95ZM134.19 0L122.94 0 122.94-1.65Q124.84-1.75 125.54-2.53 126.24-3.3 126.32-4.67 126.39-6.05 126.39-7.8L126.39-7.8 126.39-29.4Q126.39-30.4 126.44-31.33 126.49-32.25 126.54-33L126.54-33Q125.64-32.95 124.74-32.9 123.84-32.85 122.94-32.8L122.94-32.8 122.94-35Q125.74-35.05 128.62-35.1 131.49-35.15 134.39-35.05L134.39-35.05Q139.24-35 142.22-33.93 145.19-32.85 146.59-30.88 147.99-28.9 147.99-26.1L147.99-26.1Q148.04-24.15 147.27-22.13 146.49-20.1 144.47-18.5 142.44-16.9 138.64-16.1L138.64-16.1Q139.64-15.4 140.39-14.3 141.14-13.2 142.09-11.75L142.09-11.75 145.49-6.4Q146.34-5.05 147.14-3.98 147.94-2.9 148.99-2.27 150.04-1.65 151.59-1.65L151.59-1.65 151.59 0 145.29 0Q143.84-1.3 142.87-2.6 141.89-3.9 140.84-5.55L140.84-5.55 137.49-10.9Q136.84-11.95 136.02-13.33 135.19-14.7 134.14-15.65L134.14-15.65Q133.34-15.6 132.47-15.6 131.59-15.6 130.74-15.65L130.74-15.65 130.74-5.95Q130.74-4.6 130.72-3.63 130.69-2.65 130.59-2L130.59-2Q131.19-2.05 131.79-2.08 132.39-2.1 132.99-2.15 133.59-2.2 134.19-2.2L134.19-2.2 134.19 0ZM133.84-17.5L133.84-17.5Q136.59-17.6 138.67-18.4 140.74-19.2 141.94-20.95 143.14-22.7 143.14-25.55L143.14-25.55Q143.14-27.45 142.62-28.88 142.09-30.3 140.99-31.25 139.89-32.2 138.19-32.68 136.49-33.15 134.19-33.15L134.19-33.15Q132.34-33.15 131.62-32.4 130.89-31.65 130.82-30.33 130.74-29 130.74-27.2L130.74-27.2 130.74-17.6Q131.54-17.55 132.27-17.5 132.99-17.45 133.84-17.5ZM170.94 0.8L170.94 0.8Q165.94 0.8 162.09-1.3 158.24-3.4 156.09-7.35 153.94-11.3 153.94-16.75L153.94-16.75Q153.94-20.3 155.01-23.68 156.09-27.05 158.26-29.8 160.44-32.55 163.71-34.18 166.99-35.8 171.34-35.8L171.34-35.8Q173.14-35.8 174.99-35.48 176.84-35.15 178.56-34.52 180.29-33.9 181.69-33.05L181.69-33.05 181.49-35.45 184.24-35.45 184.24-24 182.44-24Q182.24-27.15 180.76-29.33 179.29-31.5 176.94-32.65 174.59-33.8 171.69-33.8L171.69-33.8Q169.04-33.8 166.71-32.63 164.39-31.45 162.61-29.33 160.84-27.2 159.84-24.3 158.84-21.4 158.84-17.9L158.84-17.9Q158.84-13.2 160.54-9.5 162.24-5.8 165.26-3.7 168.29-1.6 172.24-1.6L172.24-1.6Q173.59-1.6 175.06-1.85 176.54-2.1 178.01-2.68 179.49-3.25 180.79-4.1L180.79-4.1 180.79-10.2Q180.79-11.4 180.79-12.63 180.79-13.85 180.79-15.05L180.79-15.05Q179.94-15 179.04-14.95 178.14-14.9 177.29-14.85L177.29-14.85 177.29-17.05 188.59-17.05 188.59-15.4Q187.19-15.4 186.44-14.68 185.69-13.95 185.39-12.93 185.09-11.9 185.04-10.93 184.99-9.95 184.99-9.45L184.99-9.45 184.99-1.8 183.64-1.8Q182.84-1.8 181.44-1.5 180.04-1.2 178.24-0.5L178.24-0.5Q176.69 0.1 174.64 0.45 172.59 0.8 170.94 0.8ZM209.14 0.8L209.14 0.8Q204.39 0.8 200.99-0.8 197.59-2.4 195.46-5.08 193.34-7.75 192.34-11 191.34-14.25 191.34-17.5L191.34-17.5Q191.34-20.65 192.39-23.88 193.44-27.1 195.61-29.8 197.79-32.5 201.06-34.15 204.34-35.8 208.74-35.8L208.74-35.8Q213.34-35.8 216.69-34.15 220.04-32.5 222.21-29.78 224.39-27.05 225.46-23.85 226.54-20.65 226.54-17.5L226.54-17.5Q226.54-14.4 225.49-11.18 224.44-7.95 222.26-5.23 220.09-2.5 216.84-0.85 213.59 0.8 209.14 0.8ZM209.24-1.25L209.24-1.25Q212.34-1.25 214.64-2.58 216.94-3.9 218.46-6.13 219.99-8.35 220.76-11.08 221.54-13.8 221.54-16.55L221.54-16.55Q221.54-19.65 220.69-22.7 219.84-25.75 218.19-28.25 216.54-30.75 214.11-32.27 211.69-33.8 208.59-33.8L208.59-33.8Q205.49-33.8 203.16-32.45 200.84-31.1 199.31-28.88 197.79-26.65 197.01-23.93 196.24-21.2 196.24-18.4L196.24-18.4Q196.24-15.65 197.01-12.65 197.79-9.65 199.39-7.05 200.99-4.45 203.44-2.85 205.89-1.25 209.24-1.25ZM255.88 0L244.63 0 244.63-1.65Q246.53-1.75 247.23-2.53 247.93-3.3 248.01-4.67 248.08-6.05 248.08-7.8L248.08-7.8 248.08-29.4Q248.08-30.4 248.13-31.33 248.18-32.25 248.23-33L248.23-33Q247.33-32.95 246.43-32.9 245.53-32.85 244.63-32.8L244.63-32.8 244.63-35 255.88-35 255.88-33.35Q254.03-33.3 253.31-32.5 252.58-31.7 252.51-30.35 252.43-29 252.43-27.2L252.43-27.2 252.43-18.9 270.33-18.9 270.33-29.4Q270.33-30.4 270.38-31.33 270.43-32.25 270.48-33L270.48-33Q269.58-32.95 268.68-32.9 267.78-32.85 266.88-32.8L266.88-32.8 266.88-35 278.13-35 278.13-33.35Q276.28-33.3 275.56-32.5 274.83-31.7 274.76-30.35 274.68-29 274.68-27.2L274.68-27.2 274.68-5.95Q274.68-4.6 274.66-3.63 274.63-2.65 274.53-2L274.53-2Q275.43-2.05 276.33-2.1 277.23-2.15 278.13-2.2L278.13-2.2 278.13 0 266.88 0 266.88-1.65Q268.78-1.75 269.48-2.53 270.18-3.3 270.26-4.67 270.33-6.05 270.33-7.8L270.33-7.8 270.33-16.9 252.43-16.7 252.43-5.95Q252.43-4.6 252.41-3.63 252.38-2.65 252.28-2L252.28-2Q253.18-2.05 254.08-2.1 254.98-2.15 255.88-2.2L255.88-2.2 255.88 0ZM302.68-12.95L301.03-12.95Q301.03-15.15 300.43-16.1 299.83-17.05 298.53-17.25 297.23-17.45 295.08-17.35L295.08-17.35 291.43-17.2 291.43-5.75Q291.43-4.4 291.4-3.45 291.38-2.5 291.28-1.85L291.28-1.85 300.83-2Q303.03-2.05 304.63-2.73 306.23-3.4 307.13-5.1 308.03-6.8 308.03-9.75L308.03-9.75 309.73-9.75 309.43 0 283.63 0 283.63-1.65Q285.53-1.75 286.23-2.53 286.93-3.3 287-4.67 287.08-6.05 287.08-7.8L287.08-7.8 287.08-29.4Q287.08-30.4 287.13-31.33 287.18-32.25 287.23-33L287.23-33Q286.33-32.95 285.43-32.9 284.53-32.85 283.63-32.8L283.63-32.8 283.63-35 307.68-35 307.93-26.25 306.28-26.25Q306.28-29.2 305.38-30.73 304.48-32.25 302.95-32.77 301.43-33.3 299.53-33.25L299.53-33.25 295.23-33.15Q293.38-33.1 292.58-32.45 291.78-31.8 291.6-30.53 291.43-29.25 291.43-27.2L291.43-27.2 291.43-19.2 300.83-19.15 300.48-23.45 302.68-23.45 302.68-12.95ZM339.53 0L314.73 0 314.73-1.65Q316.63-1.75 317.33-2.53 318.03-3.3 318.1-4.67 318.18-6.05 318.18-7.8L318.18-7.8 318.18-29.4Q318.18-30.4 318.23-31.33 318.28-32.25 318.33-33L318.33-33Q317.43-32.95 316.53-32.9 315.63-32.85 314.73-32.8L314.73-32.8 314.73-35 325.98-35 325.98-33.35Q324.13-33.3 323.4-32.5 322.68-31.7 322.6-30.35 322.53-29 322.53-27.2L322.53-27.2 322.53-5.75Q322.53-4.4 322.5-3.45 322.48-2.5 322.38-1.85L322.38-1.85 331.73-2Q334.88-2.05 336.5-4 338.13-5.95 338.13-10.35L338.13-10.35 339.83-10.35 339.53 0ZM343.62 0L343.62-1.65Q345.52-1.75 346.22-2.53 346.92-3.3 347-4.67 347.07-6.05 347.07-7.8L347.07-7.8 347.07-29.4Q347.07-30.4 347.12-31.33 347.17-32.25 347.22-33L347.22-33Q346.32-32.95 345.42-32.9 344.52-32.85 343.62-32.8L343.62-32.8 343.62-35Q346.27-35.05 349.07-35.08 351.87-35.1 354.77-35.1L354.77-35.1Q359.62-35.1 362.92-34 366.22-32.9 367.97-30.75 369.72-28.6 369.87-25.4L369.87-25.4Q369.97-23.45 369.3-21.33 368.62-19.2 366.8-17.32 364.97-15.45 361.67-14.3 358.37-13.15 353.22-13.15L353.22-13.15Q353.02-13.15 352.47-13.15 351.92-13.15 351.42-13.2L351.42-13.2 351.42-5.95Q351.42-4.6 351.4-3.63 351.37-2.65 351.27-2L351.27-2Q352.07-2.05 352.82-2.1 353.57-2.15 354.35-2.18 355.12-2.2 355.87-2.25L355.87-2.25 355.87 0 343.62 0ZM351.42-27.2L351.42-15.25Q352.37-15.15 353.05-15.13 353.72-15.1 354.67-15.1L354.67-15.1Q357.52-15.1 359.87-16.23 362.22-17.35 363.62-19.45 365.02-21.55 365.02-24.45L365.02-24.45Q365.02-26.8 364.27-28.48 363.52-30.15 362.15-31.18 360.77-32.2 358.87-32.68 356.97-33.15 354.67-33.15L354.67-33.15Q352.92-33.15 352.25-32.4 351.57-31.65 351.5-30.33 351.42-29 351.42-27.2L351.42-27.2Z" opacity="1" transform="matrix(1,0,0,1,0,0)" fill="#ffffff" class="undefined-text-0" data-fill-palette-color="primary" id="text-0"></path></svg></g></svg></g><g transform="matrix(1,0,0,1,121.2786806816983,48.53101955876827)"><svg viewBox="0 0 152.96263863660337 36.3960267256853" height="36.3960267256853" width="152.96263863660337"><g transform="matrix(1,0,0,1,0,0)"><svg width="152.96263863660337" viewBox="2.700000047683716 -37.75 215.5800018310547 51.29999923706055" height="36.3960267256853" data-palette-color="#ffffff"><path d="M24.8-24.2L22.5-24.2Q22.25-26.75 21.2-28.8 20.15-30.85 18.3-32.08 16.45-33.3 13.7-33.25L13.7-33.25Q10.9-33.25 9.25-31.7 7.6-30.15 7.6-27.95L7.6-27.95Q7.6-26 8.7-24.68 9.8-23.35 11.68-22.3 13.55-21.25 15.9-20.2L15.9-20.2Q17.8-19.4 19.75-18.4 21.7-17.4 23.3-16.13 24.9-14.85 25.85-13.08 26.8-11.3 26.8-8.9L26.8-8.9Q26.8-6.1 25.35-3.9 23.9-1.7 21.23-0.45 18.55 0.8 14.75 0.8L14.75 0.8Q12.6 0.8 10.23 0.15 7.85-0.5 5.9-1.7L5.9-1.7 6.15 0.4 3.1 0.4 2.9-10.6 5.3-10.6Q5.7-6.25 8.43-4.03 11.15-1.8 14.95-1.8L14.95-1.8Q16.85-1.8 18.4-2.5 19.95-3.2 20.85-4.5 21.75-5.8 21.75-7.55L21.75-7.55Q21.75-9.6 20.53-11 19.3-12.4 17.43-13.4 15.55-14.4 13.5-15.3L13.5-15.3Q11.45-16.2 9.53-17.2 7.6-18.2 6.05-19.5 4.5-20.8 3.6-22.58 2.7-24.35 2.7-26.75L2.7-26.75Q2.7-28.15 3.2-29.7 3.7-31.25 4.9-32.65 6.1-34.05 8.18-34.93 10.25-35.8 13.4-35.8L13.4-35.8Q15.3-35.8 17.68-35.25 20.05-34.7 22-33.3L22-33.3 21.8-35.4 24.8-35.4 24.8-24.2ZM43 0.8L43 0.8Q39.5 0.8 36.72-0.83 33.95-2.45 32.35-5.43 30.75-8.4 30.75-12.45L30.75-12.45Q30.75-15.95 32.32-19 33.9-22.05 36.75-23.93 39.6-25.8 43.35-25.8L43.35-25.8Q45.45-25.8 47.32-25.15 49.2-24.5 50.67-23.13 52.15-21.75 53-19.58 53.85-17.4 53.85-14.3L53.85-14.3 36.65-14Q36.65-10.6 37.42-7.95 38.2-5.3 39.95-3.85 41.7-2.4 44.5-2.4L44.5-2.4Q45.85-2.4 47.37-2.88 48.9-3.35 50.27-4.25 51.65-5.15 52.6-6.4L52.6-6.4 54.15-5.05Q52.65-2.8 50.7-1.53 48.75-0.25 46.72 0.28 44.7 0.8 43 0.8ZM36.85-16.6L36.85-16.6 48.4-16.6Q48.4-18.5 47.87-20.03 47.35-21.55 46.25-22.45 45.15-23.35 43.45-23.35L43.45-23.35Q40.8-23.35 39.1-21.68 37.4-20 36.85-16.6ZM69.65 13.55L69.65 13.55Q65.25 13.55 62.57 12.58 59.9 11.6 58.72 10.08 57.55 8.55 57.55 6.85L57.55 6.85Q57.55 5.5 58.17 4.35 58.8 3.2 59.85 2.33 60.9 1.45 62.2 0.95L62.2 0.95Q60.45 0.4 59.55-0.63 58.65-1.65 58.65-3.15L58.65-3.15Q58.65-4.75 59.92-6.3 61.2-7.85 63.6-8.4L63.6-8.4Q61.35-9.4 60-11.3 58.65-13.2 58.6-15.8L58.6-15.8Q58.55-18.8 60.12-21.05 61.7-23.3 64.17-24.55 66.65-25.8 69.34-25.8L69.34-25.8Q70.9-25.8 72.55-25.38 74.2-24.95 75.55-24.05L75.55-24.05Q76.09-25.5 77-26.7 77.9-27.9 79.12-28.6 80.34-29.3 81.7-29.3L81.7-29.3Q83.15-29.3 83.9-28.55 84.65-27.8 84.65-26.55L84.65-26.55Q84.65-26.15 84.42-25.58 84.2-25 83.65-24.6 83.09-24.2 82.15-24.2L82.15-24.2Q81.34-24.2 80.72-24.73 80.09-25.25 79.95-26L79.95-26Q78.9-25.8 78.22-24.78 77.55-23.75 77.34-22.7L77.34-22.7Q78.65-21.55 79.37-19.98 80.09-18.4 80.09-16.6L80.09-16.6Q80.09-13.75 78.57-11.55 77.05-9.35 74.59-8.1 72.15-6.85 69.3-6.85L69.3-6.85Q68.45-6.85 67.7-6.98 66.95-7.1 66.05-7.1L66.05-7.1Q64.45-7.1 63.42-6.35 62.4-5.6 62.65-4.55L62.65-4.55Q62.9-3.45 64.75-3.1 66.59-2.75 70.09-2.6L70.09-2.6Q73.95-2.45 76.72-1.68 79.5-0.9 81.02 0.7 82.55 2.3 82.55 5.05L82.55 5.05Q82.55 7.1 81.42 8.7 80.3 10.3 78.42 11.38 76.55 12.45 74.25 13 71.95 13.55 69.65 13.55ZM70.09 11.1L70.09 11.1Q74.15 11.1 76.37 9.6 78.59 8.1 78.59 6.2L78.59 6.2Q78.59 4.6 77.5 3.73 76.4 2.85 74.42 2.48 72.45 2.1 69.8 2.05L69.8 2.05Q68.5 1.95 67.15 1.9 65.8 1.85 64.65 1.65L64.65 1.65Q63.5 2.45 62.87 3.6 62.25 4.75 62.2 6L62.2 6Q62.2 8.3 64.34 9.7 66.5 11.1 70.09 11.1ZM69.45-9.2L69.45-9.2Q71.15-9.2 72.27-10.08 73.4-10.95 73.97-12.43 74.55-13.9 74.55-15.65L74.55-15.65Q74.55-17.7 73.95-19.5 73.34-21.3 72.2-22.4 71.05-23.5 69.25-23.5L69.25-23.5Q66.8-23.5 65.45-21.55 64.09-19.6 64.09-16.85L64.09-16.85Q64.09-14.65 64.72-12.93 65.34-11.2 66.55-10.2 67.75-9.2 69.45-9.2ZM86.84 0L86.84-2.1Q88.34-2.1 88.94-2.8 89.54-3.5 89.67-4.75 89.79-6 89.79-7.65L89.79-7.65 89.79-18Q89.79-18.85 89.84-19.73 89.89-20.6 89.99-21.6L89.99-21.6Q89.14-21.55 88.19-21.53 87.24-21.5 86.44-21.45L86.44-21.45 86.44-24.1Q88.69-24.1 90.02-24.33 91.34-24.55 92.07-24.85 92.79-25.15 93.14-25.5L93.14-25.5 95.04-25.5 95.04-6.2Q95.04-5.3 94.99-4.38 94.94-3.45 94.84-2.5L94.84-2.5Q95.64-2.55 96.47-2.58 97.29-2.6 97.99-2.65L97.99-2.65 97.99 0 86.84 0ZM92.19-30.1L92.19-30.1Q90.89-30.1 89.99-31.08 89.09-32.05 89.09-33.45L89.09-33.45Q89.09-34.85 90.04-35.83 90.99-36.8 92.19-36.8L92.19-36.8Q93.49-36.8 94.37-35.83 95.24-34.85 95.24-33.45L95.24-33.45Q95.24-32.05 94.37-31.08 93.49-30.1 92.19-30.1ZM111.64 0.8L111.64 0.8Q110.39 0.8 109.14 0.48 107.89 0.15 106.81-0.83 105.74-1.8 105.14-3.65 104.54-5.5 104.54-8.55L104.54-8.55 104.64-22.2 100.94-22.2 100.94-25Q102.29-25.05 103.69-26 105.09-26.95 106.14-28.55 107.19-30.15 107.59-32L107.59-32 109.94-32 109.94-25 117.64-25 117.64-22.4 109.94-22.3 109.84-8.95Q109.84-7.05 110.16-5.63 110.49-4.2 111.27-3.43 112.04-2.65 113.39-2.65L113.39-2.65Q114.54-2.65 115.77-3.35 116.99-4.05 118.09-5.65L118.09-5.65 119.79-4.15Q118.59-2.4 117.39-1.4 116.19-0.4 115.09 0.08 113.99 0.55 113.09 0.68 112.19 0.8 111.64 0.8ZM132.39 0.8L132.39 0.8Q129.59 0.8 127.76-0.25 125.94-1.3 125.04-3.73 124.14-6.15 124.14-10.15L124.14-10.15 124.14-18Q124.14-18.85 124.16-19.78 124.19-20.7 124.34-21.6L124.34-21.6Q123.49-21.55 122.54-21.53 121.59-21.5 120.84-21.45L120.84-21.45 120.84-24.1 122.04-24.1Q124.54-24.1 125.79-24.55 127.04-25 127.54-25.5L127.54-25.5 129.44-25.5 129.44-10.25Q129.44-6.3 130.54-4.35 131.64-2.4 134.24-2.45L134.24-2.45Q135.94-2.45 137.51-3.45 139.09-4.45 140.09-5.8L140.09-5.8 140.09-17.65Q140.09-18.75 140.14-19.73 140.19-20.7 140.34-21.6L140.34-21.6Q139.44-21.55 138.49-21.53 137.54-21.5 136.74-21.45L136.74-21.45 136.74-24.1 138.19-24.1Q140.39-24.1 141.64-24.55 142.89-25 143.44-25.5L143.44-25.5 145.34-25.5 145.29-7.1Q145.29-6.3 145.24-4.93 145.19-3.55 145.09-2.5L145.09-2.5Q145.94-2.55 146.86-2.6 147.79-2.65 148.59-2.65L148.59-2.65 148.59 0 140.64 0Q140.54-0.8 140.46-1.5 140.39-2.2 140.29-2.85L140.29-2.85Q138.74-1.4 136.69-0.3 134.64 0.8 132.39 0.8ZM163.24 0L152.09 0 152.09-2.1Q153.59-2.1 154.19-2.8 154.78-3.5 154.91-4.75 155.03-6 155.03-7.65L155.03-7.65 155.09-18.05Q155.09-18.85 155.11-19.78 155.13-20.7 155.28-21.6L155.28-21.6Q154.38-21.55 153.46-21.53 152.53-21.5 151.74-21.45L151.74-21.45 151.74-24.1Q153.99-24.1 155.26-24.33 156.53-24.55 157.21-24.85 157.88-25.15 158.24-25.5L158.24-25.5 160.03-25.5Q160.09-25.05 160.11-24.65 160.13-24.25 160.16-23.8 160.19-23.35 160.24-22.65L160.24-22.65Q161.34-23.55 162.63-24.25 163.94-24.95 165.36-25.38 166.78-25.8 168.09-25.8L168.09-25.8Q172.53-25.8 174.51-23.1 176.49-20.4 176.49-14.65L176.49-14.65 176.49-6.2Q176.49-5.3 176.44-4.38 176.38-3.45 176.28-2.5L176.28-2.5Q177.09-2.55 177.91-2.58 178.74-2.6 179.44-2.65L179.44-2.65 179.44 0 168.28 0 168.28-2.1Q169.78-2.1 170.38-2.8 170.99-3.5 171.11-4.75 171.24-6 171.24-7.65L171.24-7.65 171.24-14.65Q171.19-18.6 169.96-20.6 168.74-22.6 166.03-22.55L166.03-22.55Q164.44-22.55 162.88-21.75 161.34-20.95 160.28-19.8L160.28-19.8Q160.28-19.3 160.28-18.73 160.28-18.15 160.28-17.55L160.28-17.55 160.28-6.2Q160.28-5.3 160.24-4.38 160.19-3.45 160.09-2.5L160.09-2.5Q160.88-2.55 161.71-2.58 162.53-2.6 163.24-2.65L163.24-2.65 163.24 0ZM193.53 0L182.38 0 182.38-2.1Q183.88-2.1 184.46-2.8 185.03-3.5 185.16-4.75 185.28-6 185.28-7.65L185.28-7.65 185.33-30.25Q185.33-31.1 185.36-31.98 185.38-32.85 185.48-33.85L185.48-33.85Q184.63-33.8 183.68-33.77 182.73-33.75 181.98-33.7L181.98-33.7 181.98-36.35Q184.18-36.35 185.51-36.58 186.83-36.8 187.58-37.1 188.33-37.4 188.63-37.75L188.63-37.75 190.53-37.75 190.53-14.4 192.68-14.4 197.93-20.05Q198.73-20.85 199.33-21.45 199.93-22.05 200.53-22.5L200.53-22.5 197.38-22.4 197.38-25 207.23-25 207.23-22.95Q205.48-22.75 204.06-21.93 202.63-21.1 201.48-20.05 200.33-19 199.53-18.1L199.53-18.1 195.83-14.2Q196.78-13.75 197.48-13.08 198.18-12.4 198.98-11.35L198.98-11.35 202.48-6.85Q202.73-6.55 203.31-5.78 203.88-5 204.68-4.15 205.48-3.3 206.36-2.7 207.23-2.1 208.03-2.1L208.03-2.1 208.03 0 203.08 0Q201.63 0 200.41-1.35 199.18-2.7 197.73-4.6L197.73-4.6Q196.53-6.2 195.53-7.63 194.53-9.05 193.71-10.2 192.88-11.35 192.28-12L192.28-12 190.53-11.9 190.53-6.2Q190.53-5.3 190.51-4.38 190.48-3.45 190.33-2.5L190.33-2.5Q191.13-2.55 191.98-2.58 192.83-2.6 193.53-2.65L193.53-2.65 193.53 0ZM216.33-11.2L213.98-11.2 212.03-31.85Q211.93-33.25 212.71-34.52 213.48-35.8 215.18-35.8L215.18-35.8Q216.93-35.8 217.66-34.52 218.38-33.25 218.23-31.85L218.23-31.85 216.33-11.2ZM215.13 0.8L215.13 0.8Q213.88 0.8 212.93-0.2 211.98-1.2 211.98-2.65L211.98-2.65Q211.98-4.05 212.96-5.08 213.93-6.1 215.18-6.1L215.18-6.1Q216.53-6.1 217.41-5.08 218.28-4.05 218.28-2.65L218.28-2.65Q218.28-1.2 217.33-0.2 216.38 0.8 215.13 0.8Z" opacity="1" transform="matrix(1,0,0,1,0,0)" fill="#ffffff" class="undefined-text-1" data-fill-palette-color="secondary" id="text-1"></path></svg></g></svg></g></svg></g></svg></g><g><svg viewBox="0 0 234.73835593022972 234.73835593022972" height="234.73835593022972" width="234.73835593022972"><g><svg xmlns="http://www.w3.org/2000/svg" xmlns:xlink="http://www.w3.org/1999/xlink" version="1.1" x="0" y="0" viewBox="0 0 100 100" enable-background="new 0 0 100 100" xml:space="preserve" height="234.73835593022972" width="234.73835593022972" class="icon-icon-0" data-fill-palette-color="accent" id="icon-0"><path d="M94.898 60.41c-0.204-0.764-0.705-1.416-1.392-1.809L78.61 50l14.896-8.602c0.684-0.398 1.188-1.05 1.389-1.814 0.207-0.763 0.102-1.58-0.297-2.264L83.282 17.715c-0.827-1.427-2.651-1.92-4.078-1.093l-14.901 8.602V8.021c0-1.649-1.337-2.985-2.986-2.985H38.679c-1.649 0-2.986 1.336-2.986 2.985v17.204l-14.896-8.602c-0.689-0.397-1.506-0.498-2.267-0.297-0.764 0.207-1.416 0.706-1.812 1.39L5.402 37.32c-0.825 1.426-0.334 3.251 1.092 4.078L21.394 50l-14.9 8.602c-1.428 0.827-1.917 2.651-1.094 4.078l11.319 19.605c0.396 0.685 1.047 1.188 1.814 1.395 0.761 0.196 1.578 0.091 2.264-0.302l14.896-8.597v17.198c0 1.649 1.336 2.985 2.986 2.985h22.637c1.649 0 2.986-1.336 2.986-2.985V74.771l14.901 8.602c1.427 0.822 3.251 0.334 4.078-1.092L94.599 62.68C94.997 61.99 95.103 61.174 94.898 60.41zM79.602 76.712l-16.789-9.694c-0.929-0.53-2.063-0.53-2.986 0-0.928 0.53-1.495 1.517-1.495 2.583v19.394H41.664V69.605c0-1.065-0.567-2.052-1.492-2.582-0.924-0.531-2.06-0.531-2.986 0l-16.788 9.693-8.334-14.435 16.794-9.699c0.922-0.53 1.493-1.517 1.493-2.583 0-1.066-0.57-2.052-1.493-2.588l-16.792-9.694 8.331-14.43 16.79 9.694c0.926 0.53 2.062 0.53 2.986 0 0.924-0.536 1.492-1.522 1.492-2.588V11.006h16.667v19.388c0 1.066 0.567 2.052 1.495 2.588 0.923 0.53 2.058 0.53 2.986 0l16.789-9.694 8.331 14.43-16.789 9.694c-0.923 0.536-1.49 1.522-1.49 2.588 0 1.066 0.567 2.053 1.49 2.583l16.795 9.693L79.602 76.712zM53.605 31.196c-0.229-1.345-1.43-2.366-2.799-2.263l-2.22 0.108c-0.8 0.04-1.496 0.428-1.965 1.003l-0.795-0.242c-0.721-0.217-1.477 0.186-1.697 0.904-0.217 0.716 0.188 1.474 0.904 1.694l1.033 0.315L45.11 34.47c-0.36 0.658-0.117 1.482 0.541 1.84 0.207 0.114 0.43 0.167 0.647 0.167 0.482 0 0.949-0.254 1.193-0.708l0.736-1.347c0.159 0.029 0.322 0.048 0.488 0.048 0.045 0 0.09 0 0.135-0.002l2.22-0.109c0.61-0.03 1.156-0.265 1.593-0.626 2.773 0.986 4.182 3.201 4.182 6.634 0 2.48-2.266 4.66-5.938 5.883l0.129-3.722c0.002-0.029 0.002-0.063 0-0.095 0-0.006-0.002-0.013-0.003-0.019 1.003-0.501 1.699-1.527 1.699-2.72 0-1.689-1.37-3.055-3.054-3.055s-3.052 1.366-3.052 3.055c0 1.195 0.697 2.222 1.702 2.723-0.002 0.038-0.009 0.074-0.007 0.112l0.151 4.354c-0.004 0-0.008 0.001-0.013 0.002-3.736 0.713-5.693 3.62-5.693 6.12 0 3.922 3.431 5.176 5.483 5.927 0.212 0.077 0.431 0.164 0.648 0.255l0.144 4.141c-0.224 0.065-0.449 0.128-0.67 0.184-1.62 0.422-3.511 1.614-3.511 3.593 0 2.387 1.957 3.402 2.89 3.887 0.871 0.461 1.336 0.786 1.591 1.01l0.024 0.714c-0.075 0.069-0.163 0.146-0.274 0.241-0.504 0.43-1.193 1.016-1.581 1.997-0.273 0.697 0.072 1.484 0.769 1.761 0.165 0.063 0.329 0.093 0.496 0.093 0.26 0 0.509-0.078 0.725-0.215l0.177 5.12 0.189-5.47c0.067-0.092 0.13-0.188 0.174-0.298 0.127-0.328 0.392-0.564 0.811-0.922 0.597-0.51 1.501-1.278 1.501-2.652 0-1.477-1.159-2.482-2.242-3.161l0.118-3.403c1.702-0.548 4.057-1.693 4.057-4.283 0-2.444-2.139-3.845-3.749-4.591l0.271-7.817c5.373-1.511 8.752-4.82 8.752-8.746C59.562 35.744 57.438 32.572 53.605 31.196zM45.481 53.004c0-1.016 0.861-2.741 3.087-3.342l0.228 6.57C46.519 55.368 45.481 54.643 45.481 53.004zM49.229 68.7c-0.073-0.039-0.153-0.083-0.22-0.118-1.22-0.631-1.432-0.981-1.432-1.479 0-0.263 0.658-0.753 1.472-0.965 0.027-0.007 0.062-0.016 0.091-0.023L49.229 68.7zM51.572 61.521c0 0.574-0.524 1.001-1.24 1.335l0.1-2.878C51.097 60.421 51.572 60.939 51.572 61.521z" fill="#ffffff" data-fill-palette-color="accent"></path></svg></g></svg></g></svg></g><defs></defs></svg><rect width="395.52" height="142.32482220955836" fill="none" stroke="none" visibility="hidden"></rect></g></svg></g></svg>